<?xml version="1.0" encoding="utf-8"?>
<!-- Generator: Adobe Illustrator 16.0.0, SVG Export Plug-In . SVG Version: 6.00 Build 0)  -->
<!DOCTYPE svg PUBLIC "-//W3C//DTD SVG 1.1//EN" "http://www.w3.org/Graphics/SVG/1.1/DTD/svg11.dtd">
<svg version="1.1" id="Layer_1" xmlns="http://www.w3.org/2000/svg" xmlns:xlink="http://www.w3.org/1999/xlink" x="0px" y="0px"
     width="491.988px" height="491.982px" viewBox="0 0 491.988 491.982" enable-background="new 0 0 491.988 491.982"
     xml:space="preserve">
<g>
	<g>
		<path fill-rule="evenodd" clip-rule="evenodd" fill="none" d="M491.491,0.491c0.15,0.106,0.512-0.249,0.496,0.245
			c-0.021,0.654-0.005,1.31-0.005,1.964c0,163.094,0,326.187,0,489.282c-163.831,0-327.661,0-491.491,0
			c0-117.35,0-234.698,0-352.047c3.398-0.641,6.753-1.39,9.076-4.287c2.911-3.631,5.847-7.243,8.682-10.932
			c10.799-14.053,22.136-27.675,33.197-41.518c7.695-9.63,15.51-19.167,23.128-28.857c3.532-4.493,2.815-10.778-1.07-14.717
			c-9.702-9.835-19.41-19.666-29.104-29.509c-0.858-0.871-1.611-1.843-2.458-2.725c-2.827-2.943-5.529-6.095-10.04-6.402
			c-0.042-0.057-0.129-0.121-0.12-0.168c0.021-0.114,0.087-0.22,0.135-0.329c142.717,0,285.435,0,428.152,0
			c-5.026,1.237-8.013,5.19-11.39,8.603c-2.932,2.962-5.777,6.01-8.688,8.995c-6.737,6.91-13.484,13.809-20.239,20.703
			c-3.6,3.674-4.951,7.88-3.345,12.928c0.671,2.111,2.094,3.694,3.408,5.327c11.518,14.316,23.126,28.56,34.635,42.883
			c9.263,11.526,18.475,23.095,27.598,34.731c2.432,3.101,5.419,4.73,9.434,5.016c0-1.944-0.188-3.841,0.042-5.686
			c0.376-3.002-0.804-5.21-2.638-7.488c-20.623-25.605-41.143-51.292-61.771-76.892c-1.327-1.648-1.24-2.455,0.192-3.905
			c10.75-10.883,21.452-21.816,32.045-32.854c1.506-1.57,2.914-2.176,5.035-2.146c8.18,0.115,16.364-0.058,24.542,0.114
			c2.287,0.047,2.735-0.674,2.594-2.725C491.349,5.573,491.487,3.027,491.491,0.491z M176.825,316.172
			c0,19.227-0.005,38.453,0.006,57.68c0.001,2.56,0.482,5.061,1.726,7.3c2.217,3.989,6.112,4.99,10.226,5.09
			c6.705,0.162,13.417,0.043,20.125,0.082c4.115,0.024,8.144-0.486,12.115-1.581c3.687-1.016,6.604-3.117,8.986-6.042
			c3.883-4.77,4.597-10.519,4.96-16.345c0.162-2.608-0.041-5.242,0.142-7.849c0.34-4.864,4.488-8.645,9.293-8.646
			c5.522-0.003,9.724,4.037,10.014,9.625c0.199,3.834-0.161,7.679,0.427,11.511c1.915,12.484,8.826,18.211,19.558,18.907
			c10.125,0.657,20.288,0.342,30.426,0.078c5.539-0.144,10.132-2.27,10.919-8.992c1.362-11.646,1.643-23.351-0.119-34.964
			c-1.307-8.614-6.812-13.509-15.225-15.526c-4.859-1.166-9.764-0.746-14.642-1.101c-3.171-0.23-5.852-1.462-8.065-3.673
			c-2.481-2.479-2.881-5.287-1.387-8.508c1.774-3.825,5.091-5.062,8.96-5.351c4.893-0.365,9.744-0.932,14.58-1.855
			c9.959-1.904,14.634-8.646,15.748-17.817c1.268-10.428,0.65-20.928,0.387-31.385c-0.168-6.605-4.387-10.649-11.012-10.718
			c-9.973-0.104-19.978-0.666-29.923,0.365c-10.041,1.042-16.644,4.982-18.852,16.291c-0.913,4.675-1.383,9.369-1.73,14.092
			c-0.466,6.353-3.939,9.706-10,9.554c-5.246-0.132-9.341-4.536-9.452-10.206c-0.044-2.208,0.051-4.42-0.031-6.626
			c-0.168-4.526-0.917-8.992-3.01-13.016c-3.545-6.813-9.636-9.739-17.042-10.163c-8.828-0.505-17.668-0.219-26.502-0.097
			c-2.357,0.033-4.709,0.44-6.771,1.8c-3.758,2.479-4.798,6.275-4.81,10.408C176.793,277.72,176.825,296.946,176.825,316.172z"/>
		<path fill-rule="evenodd" clip-rule="evenodd" fill="none" d="M0.491,129.624c0-39.607,0-79.214,0-118.822
			c9.317-0.017,18.635,0.008,27.952-0.088c1.624-0.017,2.694,0.522,3.798,1.654c10.675,10.939,21.403,21.827,32.122,32.724
			c2.452,2.493,2.455,2.477,0.327,5.13c-20.806,25.946-41.609,51.895-62.417,77.84C1.774,128.683,1.411,129.476,0.491,129.624z
			 M27.65,66.445c2.874-12.656,10.551-20.208,23.09-23.043C38.4,40.55,30.676,33.147,27.595,20.773
			c-3.176,12.675-11.016,20-23.472,22.626C16.98,46.086,24.741,53.744,27.65,66.445z"/>
		<path fill-rule="evenodd" clip-rule="evenodd" fill="#292929" d="M491.491,0.491c-0.004,2.536-0.143,5.082,0.031,7.605
			c0.142,2.051-0.307,2.772-2.594,2.725c-8.178-0.171-16.362,0.001-24.542-0.114c-2.121-0.03-3.529,0.576-5.035,2.146
			c-10.593,11.037-21.295,21.97-32.045,32.854c-1.433,1.45-1.52,2.257-0.192,3.905c20.628,25.6,41.147,51.287,61.771,76.892
			c1.834,2.277,3.014,4.486,2.638,7.488c-0.23,1.845-0.042,3.742-0.042,5.686c-4.015-0.286-7.002-1.916-9.434-5.016
			c-9.123-11.636-18.335-23.205-27.598-34.731c-11.509-14.324-23.117-28.567-34.635-42.883c-1.314-1.633-2.737-3.216-3.408-5.327
			c-1.606-5.047-0.255-9.254,3.345-12.928c6.755-6.894,13.502-13.793,20.239-20.703c2.91-2.985,5.756-6.033,8.688-8.995
			c3.377-3.413,6.363-7.366,11.39-8.603C470.541,0.491,481.017,0.491,491.491,0.491z"/>
		<path fill-rule="evenodd" clip-rule="evenodd" fill="#292929" d="M0.491,129.624c0.919-0.148,1.283-0.941,1.781-1.562
			c20.809-25.945,41.611-51.894,62.417-77.84c2.128-2.654,2.125-2.638-0.327-5.13C53.645,34.195,42.917,23.307,32.242,12.368
			c-1.104-1.131-2.175-1.671-3.798-1.654c-9.317,0.096-18.635,0.071-27.952,0.088c0-3.273,0-6.546,0-9.82
			c8.645-0.005,17.29,0,25.935-0.029c0.856-0.003,1.813,0.329,2.542-0.461c0.491,0,0.982,0,1.473,0
			c0.329,0.628,0.885,0.589,1.458,0.497c4.511,0.307,7.213,3.459,10.04,6.402c0.847,0.882,1.601,1.854,2.458,2.725
			c9.695,9.843,19.402,19.673,29.104,29.509c3.886,3.939,4.602,10.224,1.07,14.717c-7.618,9.69-15.433,19.227-23.128,28.857
			c-11.061,13.843-22.397,27.465-33.197,41.518c-2.835,3.689-5.771,7.301-8.682,10.932c-2.322,2.896-5.678,3.646-9.076,4.287
			C0.491,136.498,0.491,133.061,0.491,129.624z"/>
		<path fill-rule="evenodd" clip-rule="evenodd" fill="#292929" d="M28.969,0.491c-0.729,0.791-1.686,0.458-2.542,0.461
			C17.781,0.982,9.136,0.977,0.491,0.982c0.27-1.223,1.213-0.434,1.719-0.438C11.129,0.471,20.049,0.491,28.969,0.491z"/>
		<path fill-rule="evenodd" clip-rule="evenodd" fill="#292929" d="M31.9,0.988c-0.574,0.092-1.13,0.131-1.458-0.497
			c0.491,0,0.982,0,1.473,0c-0.048,0.109-0.113,0.215-0.135,0.329C31.771,0.867,31.858,0.932,31.9,0.988z"/>
		<path fill-rule="evenodd" clip-rule="evenodd" fill="#292929" d="M176.825,316.172c0-19.226-0.032-38.452,0.025-57.678
			c0.012-4.133,1.052-7.93,4.81-10.408c2.061-1.359,4.414-1.767,6.771-1.8c8.834-0.122,17.674-0.408,26.502,0.097
			c7.405,0.424,13.496,3.351,17.042,10.163c2.094,4.023,2.842,8.489,3.01,13.016c0.082,2.206-0.013,4.418,0.031,6.626
			c0.111,5.67,4.207,10.074,9.452,10.206c6.061,0.152,9.534-3.201,10-9.554c0.347-4.723,0.817-9.417,1.73-14.092
			c2.208-11.309,8.811-15.249,18.852-16.291c9.945-1.031,19.95-0.469,29.923-0.365c6.625,0.068,10.844,4.112,11.012,10.718
			c0.264,10.457,0.881,20.957-0.387,31.385c-1.114,9.171-5.789,15.913-15.748,17.817c-4.836,0.924-9.688,1.49-14.58,1.855
			c-3.869,0.289-7.186,1.525-8.96,5.351c-1.494,3.221-1.095,6.029,1.387,8.508c2.214,2.211,4.895,3.442,8.065,3.673
			c4.878,0.354,9.782-0.065,14.642,1.101c8.413,2.018,13.918,6.912,15.225,15.526c1.762,11.613,1.481,23.317,0.119,34.964
			c-0.787,6.723-5.38,8.849-10.919,8.992c-10.138,0.264-20.301,0.579-30.426-0.078c-10.731-0.696-17.643-6.423-19.558-18.907
			c-0.588-3.832-0.228-7.677-0.427-11.511c-0.29-5.588-4.491-9.628-10.014-9.625c-4.805,0.002-8.953,3.782-9.293,8.646
			c-0.183,2.606,0.02,5.24-0.142,7.849c-0.363,5.826-1.077,11.575-4.96,16.345c-2.381,2.925-5.299,5.026-8.986,6.042
			c-3.971,1.095-8,1.605-12.115,1.581c-6.708-0.039-13.42,0.08-20.125-0.082c-4.114-0.1-8.009-1.101-10.226-5.09
			c-1.244-2.239-1.725-4.74-1.726-7.3C176.82,354.625,176.825,335.398,176.825,316.172z M187.091,316.181
			c0,12.271,0,24.543,0,36.813c0,7.036-0.001,14.071,0.003,21.106c0,0.939-0.307,1.966,1.335,1.949
			c8.506-0.089,17.024,0.372,25.517-0.213c6.931-0.478,9.893-3.513,10.533-10.523c0.333-3.657,0.059-7.371,0.411-11.025
			c0.774-8.036,4.641-14.172,12.267-17.207c7.446-2.963,14.516-1.675,20.636,3.547c4.683,3.994,6.732,9.313,6.907,15.413
			c0.105,3.674-0.246,7.365,0.432,11.019c1.041,5.606,4.281,8.407,9.885,8.648c9.733,0.42,19.467,0.129,29.2,0.108
			c1.187-0.002,1.706-0.23,1.783-1.575c0.536-9.321,0.634-18.643,0.043-27.957c-0.426-6.727-3.884-10.027-10.625-10.362
			c-2.613-0.13-5.235-0.095-7.852-0.187c-4.379-0.151-8.669-0.82-12.438-3.213c-6.034-3.829-10.389-8.783-9.833-16.52
			c0.575-7.996,4.585-13.639,12.018-16.737c2.667-1.112,5.512-1.471,8.381-1.688c4.238-0.322,8.499-0.535,12.646-1.562
			c4.268-1.057,6.567-3.688,7.048-8.068c1.11-10.119,0.366-20.27,0.448-30.407c0.008-0.945-0.314-1.291-1.276-1.272
			c-9.811,0.187-19.635-0.459-29.433,0.415c-5.679,0.507-7.875,2.604-9.082,8.208c-0.934,4.341-1.021,8.762-1.417,13.154
			c-1.183,13.166-12.135,21.159-24.672,17.986c-8.421-2.132-14.653-9.719-15.139-18.438c-0.218-3.917,0.184-7.853-0.405-11.763
			c-0.904-6.006-4.117-8.96-10.108-9.244c-8.342-0.396-16.687-0.052-25.028-0.165c-1.922-0.026-2.233,0.556-2.227,2.331
			C187.117,277.895,187.091,297.038,187.091,316.181z"/>
		<path fill-rule="evenodd" clip-rule="evenodd" fill="#292929" d="M27.65,66.445C24.741,53.744,16.98,46.086,4.123,43.399
			c12.456-2.627,20.296-9.951,23.472-22.626C30.676,33.147,38.4,40.55,50.74,43.402C38.201,46.237,30.524,53.79,27.65,66.445z"/>
		<path fill-rule="evenodd" clip-rule="evenodd" fill="none" d="M187.091,316.181c0-19.143,0.026-38.286-0.043-57.429
			c-0.006-1.775,0.305-2.357,2.227-2.331c8.342,0.113,16.687-0.23,25.028,0.165c5.992,0.284,9.204,3.238,10.108,9.244
			c0.589,3.91,0.187,7.846,0.405,11.763c0.486,8.72,6.718,16.307,15.139,18.438c12.538,3.173,23.49-4.82,24.672-17.986
			c0.396-4.393,0.483-8.813,1.417-13.154c1.207-5.604,3.403-7.701,9.082-8.208c9.798-0.874,19.622-0.229,29.433-0.415
			c0.962-0.019,1.284,0.327,1.276,1.272c-0.082,10.138,0.662,20.288-0.448,30.407c-0.48,4.381-2.78,7.012-7.048,8.068
			c-4.146,1.026-8.407,1.239-12.646,1.562c-2.869,0.218-5.714,0.576-8.381,1.688c-7.433,3.099-11.442,8.741-12.018,16.737
			c-0.556,7.736,3.799,12.69,9.833,16.52c3.769,2.393,8.059,3.062,12.438,3.213c2.616,0.092,5.238,0.057,7.852,0.187
			c6.741,0.335,10.199,3.636,10.625,10.362c0.591,9.314,0.493,18.636-0.043,27.957c-0.077,1.345-0.597,1.573-1.783,1.575
			c-9.733,0.021-19.467,0.312-29.2-0.108c-5.604-0.241-8.844-3.042-9.885-8.648c-0.678-3.653-0.326-7.345-0.432-11.019
			c-0.175-6.101-2.225-11.419-6.907-15.413c-6.12-5.222-13.19-6.51-20.636-3.547c-7.625,3.035-11.492,9.171-12.267,17.207
			c-0.352,3.654-0.078,7.368-0.411,11.025c-0.64,7.011-3.602,10.046-10.533,10.523c-8.492,0.585-17.01,0.124-25.517,0.213
			c-1.642,0.017-1.334-1.01-1.335-1.949c-0.004-7.035-0.003-14.07-0.003-21.106C187.091,340.724,187.091,328.452,187.091,316.181z"
		/>
	</g>
</g>
</svg>
