<svg version="1.1" id="Layer_1" xmlns="http://www.w3.org/2000/svg" x="0px" y="0px" width="490.961px" height="490.084px" viewBox="0 0 490.961 490.084" fill="url(#kincolors) #936BFB" >
	<defs>
		<linearGradient id="kincolors"  x1="100%" y1="75%"
		                x2="0%" y2="0%">
			<stop offset="25%" style="stop-color:#149E83;stop-opacity:1"/>
			<stop offset="100%" style="stop-color:#936BFB;stop-opacity:1"/>
		</linearGradient>
	</defs>
	<g>
	<path d="M490.961,245.975c-0.498,37.911-13.985,70.979-37.775,99.956
		c-23.668,28.829-50.247,54.925-77.433,80.393c-11.651,10.916-22.883,22.331-35.573,32.071
		c-31.682,24.316-67.695,34.04-107.292,31.216c-35.786-2.553-66.584-16.334-93.007-40.638
		c-31.214-28.711-62.263-57.548-90.43-89.345c-18.143-20.48-33.487-42.606-42.027-68.864
		c-13.958-42.915-7.766-83.482,14.626-122.082c9.703-16.727,22.353-31.178,35.139-45.516c28.272-31.702,58.646-61.242,91.831-87.779
		c21.403-17.116,45.543-28.672,72.75-33.299c35.037-5.958,67.667,1.036,98.379,18.336c16.231,9.142,30.118,21.346,43.976,33.583
		c32.473,28.677,62.613,59.626,90.001,93.199c18.543,22.731,30.761,48.457,35.227,77.62
		C490.425,231.833,490.869,238.909,490.961,245.975z M167.164,245.596c0,25.22-0.01,50.438,0.026,75.658
		c0.002,1.441-0.893,3.42,2.1,3.424c11.287,0.016,22.577,0.364,33.855-0.219c8.096-0.418,12.318-4.594,13.489-12.693
		c0.589-4.071,0.33-8.149,0.434-12.226c0.303-11.875,4.817-21.378,16.233-26.085c16.846-6.944,34.686,4.908,35.846,23.517
		c0.299,4.791,0.138,9.611,0.509,14.394c0.592,7.622,5.106,12.633,12.042,12.801c13.321,0.323,26.65,0.228,39.977,0.344
		c1.6,0.014,2.244-0.416,2.351-2.21c0.713-12.002,0.812-24.013,0.126-36.003c-0.602-10.516-4.916-14.383-15.413-14.821
		c-5.983-0.249-12.012,0.039-17.911-1.379c-11.124-2.673-19.896-12.355-20.851-23.043c-0.9-10.085,5.673-20.482,15.696-24.759
		c5.66-2.416,11.598-2.715,17.644-2.244c7.103,0.553,12.648-2.889,17.83-7.155c1.248-1.028,1.934-2.422,2.093-4.051
		c1.308-13.418,0.55-26.864,0.549-40.301c0-1.361-0.445-1.952-1.859-1.926c-13.199,0.238-26.429-0.677-39.591,0.697
		c-7.246,0.756-10.056,3.565-11.235,10.881c-0.991,6.147-1.454,12.378-2.184,18.568c-1.626,13.792-12.201,23.429-25.3,23.08
		c-14.272-0.38-25.378-10.919-26.372-24.856c-0.384-5.39,0.23-10.804-0.647-16.177c-1.24-7.603-5.749-11.671-13.422-11.738
		c-10.925-0.096-21.853,0.001-32.775-0.196c-2.751-0.049-3.313,0.798-3.301,3.422C167.206,195.397,167.164,220.497,167.164,245.596z
		"/>
	</g>
</svg>


