<svg version="1.1" id="Layer_1" xmlns="http://www.w3.org/2000/svg" xmlns:xlink="http://www.w3.org/1999/xlink" x="0px" y="0px"
	 width="66.268px" height="66.524px" fill="rgb(147, 107, 251)" viewBox="0 0 66.268 66.524" enable-background="new 0 0 66.268 66.524" xml:space="preserve" >
<g>
	<path d="M0,66.468c0-22.37,0-44.094,0-66.356
		c5.347,0,10.453-0.151,15.545,0.053c3.367,0.136,4.928,2.518,5.263,5.641c0.212,1.978,0.014,3.996,0.14,5.987
		c0.378,5.97,5.199,10.55,11.113,10.635C38.154,22.516,42.59,18.28,43.088,11.9C44.018,0.001,44.018,0.001,55.929,0
		c3.148,0,6.297,0,10.006,0c0,6.184,0.394,12.125-0.258,17.948c-0.178,1.589-3.321,3.26-5.422,4.091
		c-1.737,0.688-3.946,0.113-5.938,0.234c-6.154,0.377-10.633,4.518-11.074,10.16c-0.399,5.101,3.576,10.116,9.33,11.314
		c2.41,0.503,4.96,0.349,7.447,0.461c3.464,0.155,5.786,1.805,6.051,5.337c0.286,3.809,0.176,7.65,0.177,11.479
		c0.001,1.624-0.152,3.25-0.26,5.342c-6.046,0-11.82,0.184-17.575-0.07c-3.314-0.146-4.89-2.597-5.191-5.735
		c-0.19-1.981-0.003-3.998-0.149-5.987c-0.445-6.059-5.199-10.497-11.175-10.524c-5.696-0.026-10.295,4.227-10.91,10.214
		c-0.187,1.814-0.021,3.663-0.122,5.489c-0.248,4.48-2.018,6.489-6.356,6.673C9.874,66.62,5.223,66.468,0,66.468z"/>
</g>
<path d="M0,66.468c0-22.37,0-44.094,0-66.356
	c5.347,0,10.453-0.151,15.545,0.053c3.367,0.136,4.928,2.518,5.263,5.641c0.212,1.978,0.014,3.996,0.14,5.987
	c0.378,5.97,5.199,10.55,11.113,10.635C38.154,22.516,42.59,18.28,43.088,11.9C44.018,0.001,44.018,0.001,55.929,0
	c3.148,0,6.297,0,10.006,0c0,6.184,0.394,12.125-0.258,17.948c-0.178,1.589-3.321,3.26-5.422,4.091
	c-1.737,0.688-3.946,0.113-5.938,0.234c-6.154,0.377-10.633,4.518-11.074,10.16c-0.399,5.101,3.576,10.116,9.33,11.314
	c2.41,0.503,4.96,0.349,7.447,0.461c3.464,0.155,5.786,1.805,6.051,5.337c0.286,3.809,0.176,7.65,0.177,11.479
	c0.001,1.624-0.152,3.25-0.26,5.342c-6.046,0-11.82,0.184-17.575-0.07c-3.314-0.146-4.89-2.597-5.191-5.735
	c-0.19-1.981-0.003-3.998-0.149-5.987c-0.445-6.059-5.199-10.497-11.175-10.524c-5.696-0.026-10.295,4.227-10.91,10.214
	c-0.186,1.814-0.02,3.663-0.121,5.489c-0.248,4.48-2.018,6.489-6.356,6.673C9.874,66.62,5.223,66.468,0,66.468z"/>
</svg>
