<svg height='300px' width='300px'  fill="#b9bbbe" xmlns="http://www.w3.org/2000/svg" version="1.1" x="0px" y="0px" viewBox="0 0 100 100" enable-background="new 0 0 100 100" xml:space="preserve">
   <path d="M99.963,7.715V7.472c0-2.106-1.055-3.896-2.59-5.099  C96.164,0.951,94.428,0,92.42,0H44.571c-3.639,0-6.582,2.945-6.582,6.577v1.882c0,3.632,2.943,6.577,6.582,6.577l29.812,0.003  L40.209,49.212c-2.57,2.565-2.57,6.737,0,9.304l1.328,1.326c2.572,2.572,6.736,2.572,9.303,0l34.083-34.078v29.563  c0,3.632,2.945,6.577,6.578,6.577h1.877c3.633,0,6.584-2.945,6.584-6.577V8.189C99.969,8.029,99.969,7.875,99.963,7.715z">

   </path>
	<path d="M84.918,79.651v-2.275c0-3.626,2.945-6.577,6.578-6.577h1.877c3.633,0,6.578,2.951,6.578,6.577v15.341  c0.053,0.552,0,1.031-0.096,1.5c-0.26,1.57-1.084,2.951-2.244,3.929c-1.287,1.155-2.98,1.854-4.836,1.854H7.258  c-3.994,0-7.23-3.235-7.23-7.229V7.253c0-0.613,0.078-1.209,0.221-1.778C0.77,2.367,3.477,0,6.731,0h15.738  c3.631,0,6.576,2.945,6.576,6.581v1.878c0,3.635-2.945,6.58-6.576,6.58h-1.785c-3.348,0.664-5.783,3.585-5.783,7.087v55.771  c0,3.994,3.236,7.229,7.23,7.229h55.771C81.285,85.127,84.129,82.798,84.918,79.651z">

	</path>
</svg>
